<?xml version="1.0" encoding="utf-8"?>
<!-- Generator: Adobe Illustrator 23.0.2, SVG Export Plug-In . SVG Version: 6.00 Build 0)  -->
<svg version="1.1" id="Capa_1" xmlns="http://www.w3.org/2000/svg" xmlns:xlink="http://www.w3.org/1999/xlink" x="0px" y="0px"
	 viewBox="0 0 242.09 43" style="enable-background:new 0 0 242.09 43;" xml:space="preserve">
<style type="text/css">
	.st0{fill-rule:evenodd;clip-rule:evenodd;fill:#712E84;}
	.st1{fill-rule:evenodd;clip-rule:evenodd;fill:#F0D035;stroke:#F0D035;stroke-width:0.25;stroke-miterlimit:10;}
	.st2{fill:#712E84;}
	.st3{fill:#F0D035;}
	.st4{fill:#848484;}
</style>
<g>
	<g>
		<path class="st0" d="M51.37,3.27c0,0-5.52,0.3-4.78,6.41c0.64,5.36,7.63,4.4,9.3,1.54c1.33-2.28,1.42-5.43-0.63-6.87
			c-1.76-1.23-5.66-0.03-3.18,0.16c2.24,0.17,2.93,1.17,3.11,2.72c0.18,1.55-1.53,3.15-3.64,3.58c-1.17,0.24-3.98-0.1-3.49-3.75
			C48.46,3.9,51.37,3.27,51.37,3.27L51.37,3.27z"/>
		<path class="st0" d="M53.02,32.9c0,0,6.32,3,6.69,0.8c0.37-2.2-0.34-4.14-0.68-4.85c-0.34-0.71-6.28-9.31-14.43-15.16
			c-7.75-5.57-9.97-5.35-6.89-2c2.1,2.29,6.59,4.28,7.72,5.15c1.13,0.87,6.62,5.54,7.41,9.86C53.42,29.98,53.02,32.9,53.02,32.9
			L53.02,32.9z"/>
		<path class="st1" d="M66.03,5.11c0.09-0.05,11.79,15,10.48,22.14c-1.29,7.02-9.84,12.21-35.31,5.89
			c-5.44-1.53-12.53-7.2-3.84-18.51c1.12-1.15,0.62-2.01-0.89-0.84c-1.51,1.18-9.11,9.44-6.23,15.69
			c2.88,6.25,11.86,9.44,25.49,9.78c13.64,0.34,21.72-1.04,23.32-8.47C80.65,23.37,70.4,8.24,66.03,5.11L66.03,5.11z"/>
		<path class="st0" d="M69.13,4.27c-0.74,0.88-8.41,10.31-10.54,14.92c-3.04,4.29-4.73-0.03-2.84-3.11
			c1.89-3.09,9.26-10.97,12.48-13.21c1.44-1,1.76-1.28,1.02,1.26C69.21,4.17,69.17,4.22,69.13,4.27L69.13,4.27z"/>
	</g>
	<g>
		<path class="st2" d="M86.12,23.7v8h-3.31V12.72h3.31v7.89h9.11v-7.89h3.31V31.7h-3.31v-8H86.12z"/>
		<path class="st2" d="M117.8,25.94c-0.49,1.17-1.18,2.17-2.07,3.02c-0.89,0.85-1.96,1.52-3.2,2.01c-1.24,0.49-2.6,0.73-4.08,0.73
			h-7.07V12.72h7.07c1.48,0,2.84,0.24,4.08,0.72c1.24,0.48,2.3,1.14,3.2,1.99c0.89,0.85,1.59,1.85,2.07,3.01
			c0.49,1.16,0.73,2.4,0.73,3.74C118.54,23.52,118.29,24.77,117.8,25.94z M114.56,19.64c-0.32-0.79-0.76-1.47-1.33-2.05
			c-0.57-0.58-1.26-1.03-2.08-1.36c-0.82-0.33-1.72-0.49-2.72-0.49h-3.75v12.96h3.75c1,0,1.9-0.16,2.72-0.48s1.51-0.76,2.08-1.33
			c0.57-0.57,1.01-1.25,1.33-2.04c0.32-0.79,0.48-1.66,0.48-2.6C115.04,21.29,114.88,20.43,114.56,19.64z"/>
		<path class="st2" d="M134.58,15.73h-10.73v4.88h9.51v3.01h-9.51v5.07h10.87v3.01h-14.18V12.72h14.04V15.73z"/>
	</g>
	<g>
		<path class="st3" d="M143.13,27.81c-0.13,0.29-0.31,0.53-0.53,0.72c-0.22,0.19-0.48,0.34-0.78,0.43c-0.3,0.1-0.61,0.14-0.95,0.14
			h-1.52v2.47h-0.7v-6.99h2.34c0.35,0,0.67,0.05,0.96,0.15c0.29,0.1,0.53,0.25,0.74,0.44c0.21,0.19,0.36,0.42,0.47,0.7
			c0.11,0.28,0.16,0.59,0.16,0.93C143.33,27.19,143.26,27.52,143.13,27.81z M142.16,25.7c-0.31-0.26-0.71-0.38-1.22-0.38h-1.58v3.08
			h1.55c0.26,0,0.49-0.04,0.7-0.11c0.21-0.07,0.39-0.18,0.55-0.31c0.15-0.14,0.27-0.3,0.35-0.49c0.08-0.19,0.12-0.4,0.12-0.63
			C142.63,26.34,142.47,25.96,142.16,25.7z"/>
		<path class="st3" d="M145.18,31.58h-0.69v-5.16h0.69v1.35c0.08-0.21,0.19-0.41,0.31-0.59c0.12-0.18,0.27-0.33,0.43-0.46
			c0.16-0.13,0.34-0.23,0.53-0.29c0.19-0.07,0.4-0.1,0.62-0.09v0.83h-0.05c-0.25,0-0.49,0.05-0.71,0.15
			c-0.22,0.1-0.42,0.25-0.58,0.45c-0.17,0.2-0.3,0.45-0.39,0.74c-0.1,0.3-0.14,0.64-0.14,1.02V31.58z"/>
		<path class="st3" d="M152.25,30.03c-0.12,0.33-0.29,0.62-0.5,0.86c-0.21,0.25-0.47,0.44-0.77,0.58c-0.3,0.14-0.62,0.21-0.96,0.21
			c-0.34,0-0.66-0.07-0.95-0.21c-0.29-0.14-0.54-0.34-0.76-0.58c-0.21-0.24-0.38-0.53-0.5-0.85s-0.18-0.67-0.18-1.04
			s0.06-0.71,0.18-1.04c0.12-0.33,0.29-0.62,0.5-0.86c0.21-0.25,0.47-0.44,0.76-0.58c0.29-0.14,0.62-0.21,0.97-0.21
			c0.34,0,0.66,0.07,0.96,0.21c0.29,0.14,0.55,0.34,0.76,0.58c0.21,0.24,0.38,0.53,0.5,0.85c0.12,0.33,0.18,0.67,0.18,1.04
			C152.43,29.36,152.37,29.7,152.25,30.03z M151.6,28.22c-0.09-0.25-0.21-0.46-0.36-0.64c-0.15-0.18-0.34-0.33-0.54-0.43
			c-0.21-0.11-0.43-0.16-0.68-0.16c-0.25,0-0.48,0.05-0.69,0.15c-0.21,0.1-0.38,0.25-0.53,0.43c-0.15,0.18-0.26,0.4-0.34,0.64
			c-0.08,0.24-0.12,0.5-0.12,0.78c0,0.28,0.04,0.54,0.13,0.79c0.09,0.25,0.21,0.46,0.36,0.64c0.15,0.18,0.33,0.32,0.54,0.43
			c0.21,0.11,0.43,0.16,0.68,0.16c0.25,0,0.48-0.05,0.69-0.15c0.21-0.1,0.39-0.24,0.53-0.42c0.15-0.18,0.26-0.39,0.35-0.63
			c0.08-0.24,0.12-0.5,0.12-0.78S151.69,28.46,151.6,28.22z"/>
		<path class="st3" d="M156.07,26.43v0.66h-1.45v4.48h-0.69v-4.48h-0.63v-0.67h0.63v-0.45c0-0.57,0.12-1,0.36-1.29
			c0.24-0.29,0.58-0.44,1.03-0.44c0.16,0,0.3,0.01,0.41,0.03c0.12,0.02,0.23,0.05,0.34,0.1v0.67c-0.12-0.04-0.24-0.07-0.34-0.09
			c-0.1-0.02-0.21-0.04-0.33-0.04c-0.53,0-0.8,0.37-0.8,1.1v0.42H156.07z"/>
		<path class="st3" d="M157.46,30.02c0.09,0.22,0.22,0.4,0.37,0.55c0.15,0.15,0.31,0.26,0.5,0.34c0.18,0.08,0.38,0.11,0.58,0.11
			c0.32,0,0.6-0.07,0.82-0.2c0.23-0.13,0.44-0.31,0.63-0.53l0.43,0.43c-0.23,0.29-0.5,0.53-0.79,0.7c-0.3,0.18-0.67,0.26-1.11,0.26
			c-0.31,0-0.61-0.07-0.89-0.19c-0.28-0.13-0.52-0.31-0.73-0.55c-0.21-0.24-0.38-0.52-0.5-0.85c-0.12-0.33-0.19-0.7-0.19-1.1
			c0-0.37,0.05-0.72,0.16-1.05s0.26-0.62,0.46-0.86c0.2-0.24,0.43-0.43,0.7-0.57c0.27-0.14,0.57-0.21,0.89-0.21
			c0.34,0,0.64,0.07,0.91,0.21c0.27,0.14,0.49,0.34,0.68,0.58c0.18,0.25,0.32,0.54,0.42,0.87c0.09,0.33,0.14,0.69,0.14,1.07
			c0,0.03,0,0.07,0,0.11s0,0.08-0.01,0.13h-3.65C157.3,29.56,157.36,29.81,157.46,30.02z M160.23,28.71
			c-0.02-0.23-0.06-0.46-0.13-0.67c-0.07-0.21-0.16-0.4-0.28-0.56c-0.12-0.16-0.27-0.29-0.44-0.38s-0.38-0.14-0.61-0.14
			c-0.2,0-0.39,0.04-0.56,0.13c-0.17,0.09-0.32,0.21-0.45,0.37c-0.13,0.16-0.24,0.34-0.32,0.55c-0.08,0.21-0.14,0.45-0.16,0.7
			H160.23z"/>
		<path class="st3" d="M165.17,30.78c-0.09,0.19-0.2,0.35-0.35,0.48c-0.15,0.13-0.32,0.23-0.52,0.3c-0.2,0.07-0.41,0.1-0.65,0.1
			c-0.33,0-0.67-0.07-1.01-0.2c-0.34-0.14-0.64-0.32-0.9-0.55l0.35-0.55c0.25,0.21,0.51,0.38,0.78,0.49
			c0.27,0.11,0.54,0.17,0.82,0.17c0.28,0,0.51-0.07,0.69-0.22s0.27-0.35,0.27-0.6v-0.02c0-0.13-0.03-0.24-0.09-0.33
			c-0.06-0.09-0.15-0.17-0.25-0.24c-0.11-0.07-0.23-0.13-0.37-0.18c-0.14-0.05-0.28-0.1-0.43-0.15c-0.18-0.06-0.36-0.12-0.54-0.19
			c-0.18-0.07-0.35-0.16-0.49-0.26s-0.26-0.24-0.36-0.4c-0.09-0.16-0.14-0.36-0.14-0.6V27.8c0-0.22,0.04-0.42,0.12-0.6
			c0.08-0.18,0.19-0.34,0.33-0.47c0.14-0.13,0.31-0.23,0.5-0.3c0.19-0.07,0.4-0.1,0.63-0.1c0.29,0,0.57,0.05,0.87,0.15
			c0.29,0.1,0.56,0.24,0.79,0.41l-0.31,0.58c-0.21-0.15-0.44-0.27-0.67-0.36c-0.23-0.09-0.47-0.13-0.69-0.13
			c-0.27,0-0.49,0.07-0.65,0.21c-0.16,0.14-0.24,0.32-0.24,0.53v0.02c0,0.12,0.03,0.22,0.1,0.31c0.07,0.09,0.15,0.17,0.26,0.23
			c0.11,0.07,0.24,0.13,0.38,0.18c0.14,0.05,0.29,0.11,0.45,0.16c0.18,0.06,0.36,0.13,0.53,0.2c0.18,0.07,0.33,0.17,0.48,0.28
			c0.14,0.11,0.26,0.25,0.34,0.41c0.09,0.16,0.13,0.36,0.13,0.59v0.02C165.3,30.37,165.26,30.59,165.17,30.78z"/>
		<path class="st3" d="M169.53,30.78c-0.09,0.19-0.2,0.35-0.35,0.48c-0.15,0.13-0.32,0.23-0.52,0.3c-0.2,0.07-0.41,0.1-0.65,0.1
			c-0.33,0-0.67-0.07-1.01-0.2c-0.34-0.14-0.64-0.32-0.9-0.55l0.35-0.55c0.25,0.21,0.51,0.38,0.78,0.49
			c0.27,0.11,0.54,0.17,0.82,0.17c0.28,0,0.51-0.07,0.69-0.22s0.27-0.35,0.27-0.6v-0.02c0-0.13-0.03-0.24-0.09-0.33
			c-0.06-0.09-0.15-0.17-0.25-0.24c-0.11-0.07-0.23-0.13-0.37-0.18c-0.14-0.05-0.28-0.1-0.43-0.15c-0.18-0.06-0.36-0.12-0.54-0.19
			c-0.18-0.07-0.35-0.16-0.49-0.26c-0.15-0.11-0.26-0.24-0.36-0.4c-0.09-0.16-0.14-0.36-0.14-0.6V27.8c0-0.22,0.04-0.42,0.12-0.6
			c0.08-0.18,0.19-0.34,0.33-0.47c0.14-0.13,0.31-0.23,0.5-0.3c0.19-0.07,0.4-0.1,0.63-0.1c0.29,0,0.57,0.05,0.87,0.15
			c0.29,0.1,0.56,0.24,0.79,0.41l-0.31,0.58c-0.21-0.15-0.44-0.27-0.67-0.36c-0.23-0.09-0.47-0.13-0.69-0.13
			c-0.27,0-0.49,0.07-0.65,0.21c-0.16,0.14-0.24,0.32-0.24,0.53v0.02c0,0.12,0.03,0.22,0.1,0.31c0.07,0.09,0.15,0.17,0.26,0.23
			c0.11,0.07,0.24,0.13,0.38,0.18c0.14,0.05,0.29,0.11,0.45,0.16c0.18,0.06,0.36,0.13,0.53,0.2s0.33,0.17,0.48,0.28
			c0.14,0.11,0.26,0.25,0.34,0.41c0.09,0.16,0.13,0.36,0.13,0.59v0.02C169.66,30.37,169.61,30.59,169.53,30.78z"/>
		<path class="st3" d="M170.95,25.28v-0.85h0.78v0.85H170.95z M170.99,31.58v-5.16h0.69v5.16H170.99z"/>
		<path class="st3" d="M177.61,30.03c-0.12,0.33-0.29,0.62-0.5,0.86c-0.21,0.25-0.47,0.44-0.77,0.58c-0.3,0.14-0.62,0.21-0.96,0.21
			s-0.66-0.07-0.95-0.21c-0.29-0.14-0.54-0.34-0.76-0.58c-0.21-0.24-0.38-0.53-0.5-0.85c-0.12-0.33-0.18-0.67-0.18-1.04
			s0.06-0.71,0.18-1.04c0.12-0.33,0.29-0.62,0.5-0.86c0.21-0.25,0.47-0.44,0.76-0.58c0.29-0.14,0.62-0.21,0.97-0.21
			c0.34,0,0.66,0.07,0.96,0.21c0.29,0.14,0.55,0.34,0.76,0.58c0.21,0.24,0.38,0.53,0.5,0.85c0.12,0.33,0.18,0.67,0.18,1.04
			C177.8,29.36,177.74,29.7,177.61,30.03z M176.96,28.22c-0.09-0.25-0.21-0.46-0.36-0.64c-0.15-0.18-0.34-0.33-0.54-0.43
			c-0.21-0.11-0.43-0.16-0.68-0.16c-0.25,0-0.48,0.05-0.69,0.15c-0.21,0.1-0.38,0.25-0.53,0.43c-0.15,0.18-0.26,0.4-0.34,0.64
			c-0.08,0.24-0.12,0.5-0.12,0.78c0,0.28,0.04,0.54,0.13,0.79c0.09,0.25,0.21,0.46,0.36,0.64c0.15,0.18,0.33,0.32,0.54,0.43
			c0.21,0.11,0.43,0.16,0.68,0.16c0.25,0,0.48-0.05,0.69-0.15c0.21-0.1,0.39-0.24,0.53-0.42c0.15-0.18,0.26-0.39,0.35-0.63
			c0.08-0.24,0.12-0.5,0.12-0.78S177.05,28.46,176.96,28.22z"/>
		<path class="st3" d="M179.72,31.58h-0.69v-5.16h0.69v0.9c0.15-0.28,0.36-0.52,0.61-0.71c0.25-0.2,0.57-0.29,0.97-0.29
			c0.28,0,0.53,0.05,0.74,0.15c0.22,0.1,0.4,0.24,0.55,0.42c0.15,0.18,0.27,0.4,0.35,0.65c0.08,0.25,0.12,0.53,0.12,0.84v3.21h-0.69
			v-3.02c0-0.48-0.11-0.86-0.33-1.14c-0.22-0.28-0.54-0.42-0.95-0.42c-0.2,0-0.38,0.04-0.55,0.11c-0.17,0.08-0.32,0.19-0.44,0.33
			c-0.13,0.14-0.22,0.31-0.29,0.51c-0.07,0.2-0.1,0.42-0.1,0.66V31.58z"/>
		<path class="st3" d="M185.45,27.13c-0.22,0.07-0.44,0.16-0.66,0.27l-0.21-0.63c0.26-0.13,0.51-0.24,0.78-0.31
			c0.26-0.08,0.56-0.11,0.9-0.11c0.63,0,1.12,0.17,1.45,0.52c0.34,0.35,0.51,0.87,0.51,1.55v3.16h-0.66V30.8
			c-0.16,0.23-0.38,0.44-0.65,0.62c-0.27,0.18-0.61,0.27-1.02,0.27c-0.21,0-0.42-0.03-0.63-0.1s-0.39-0.17-0.55-0.3
			c-0.16-0.14-0.29-0.3-0.39-0.5c-0.1-0.2-0.15-0.44-0.15-0.71c0-0.27,0.05-0.51,0.14-0.72c0.09-0.21,0.23-0.38,0.41-0.52
			c0.18-0.14,0.38-0.25,0.62-0.32c0.24-0.07,0.51-0.11,0.8-0.11c0.3,0,0.56,0.02,0.78,0.06c0.22,0.04,0.43,0.09,0.64,0.16v-0.18
			c0-0.47-0.12-0.82-0.36-1.05c-0.24-0.24-0.58-0.35-1.01-0.35C185.92,27.02,185.68,27.06,185.45,27.13z M185.23,29.25
			c-0.23,0.19-0.35,0.46-0.35,0.79c0,0.17,0.03,0.31,0.09,0.44c0.06,0.13,0.15,0.23,0.25,0.32c0.11,0.09,0.23,0.16,0.37,0.2
			c0.14,0.05,0.29,0.07,0.44,0.07c0.21,0,0.41-0.04,0.6-0.1c0.19-0.07,0.35-0.17,0.49-0.29c0.14-0.12,0.25-0.27,0.33-0.44
			c0.08-0.17,0.12-0.36,0.12-0.56v-0.5c-0.17-0.05-0.37-0.1-0.59-0.15c-0.22-0.05-0.48-0.07-0.76-0.07
			C185.8,28.96,185.46,29.06,185.23,29.25z"/>
		<path class="st3" d="M189.76,31.58v-7.29h0.69v7.29H189.76z"/>
		<path class="st4" d="M195.44,26.77c0.05,0.13,0.13,0.26,0.26,0.37c0.12,0.11,0.3,0.21,0.52,0.3c0.22,0.09,0.5,0.18,0.85,0.25
			c0.7,0.17,1.21,0.41,1.54,0.72c0.33,0.31,0.49,0.73,0.49,1.27c0,0.3-0.05,0.57-0.16,0.82c-0.11,0.25-0.25,0.46-0.44,0.63
			c-0.19,0.17-0.41,0.31-0.67,0.4c-0.26,0.09-0.55,0.14-0.86,0.14c-0.5,0-0.96-0.09-1.37-0.27c-0.41-0.18-0.81-0.46-1.18-0.84
			l0.44-0.58c0.33,0.33,0.66,0.58,0.99,0.74c0.33,0.16,0.72,0.24,1.15,0.24c0.42,0,0.76-0.11,1.01-0.33
			c0.25-0.22,0.38-0.51,0.38-0.87c0-0.17-0.02-0.31-0.07-0.45s-0.13-0.25-0.25-0.36c-0.12-0.11-0.28-0.2-0.5-0.29
			c-0.21-0.09-0.48-0.17-0.81-0.25c-0.36-0.09-0.67-0.19-0.93-0.3s-0.48-0.25-0.66-0.41c-0.17-0.16-0.3-0.35-0.38-0.56
			c-0.08-0.21-0.13-0.47-0.13-0.76c0-0.28,0.05-0.54,0.15-0.77c0.1-0.23,0.24-0.44,0.43-0.61c0.18-0.17,0.4-0.3,0.65-0.4
			c0.25-0.1,0.52-0.15,0.82-0.15c0.46,0,0.86,0.07,1.2,0.21c0.34,0.14,0.67,0.35,0.99,0.64l-0.41,0.61
			c-0.29-0.27-0.58-0.46-0.88-0.58c-0.29-0.12-0.6-0.18-0.92-0.18c-0.2,0-0.38,0.03-0.55,0.09c-0.16,0.06-0.3,0.14-0.42,0.24
			c-0.12,0.1-0.21,0.22-0.27,0.36s-0.09,0.29-0.09,0.45C195.37,26.49,195.4,26.64,195.44,26.77z"/>
		<path class="st4" d="M201.02,30.02c0.1,0.22,0.22,0.4,0.37,0.55c0.15,0.15,0.32,0.26,0.5,0.34c0.18,0.08,0.38,0.11,0.58,0.11
			c0.32,0,0.6-0.07,0.82-0.2c0.23-0.13,0.44-0.31,0.63-0.53l0.43,0.43c-0.23,0.29-0.5,0.53-0.79,0.7c-0.3,0.18-0.67,0.26-1.11,0.26
			c-0.32,0-0.61-0.07-0.89-0.19c-0.28-0.13-0.52-0.31-0.73-0.55c-0.21-0.24-0.38-0.52-0.5-0.85c-0.12-0.33-0.19-0.7-0.19-1.1
			c0-0.37,0.06-0.72,0.16-1.05c0.11-0.33,0.26-0.62,0.46-0.86c0.2-0.24,0.43-0.43,0.7-0.57c0.27-0.14,0.57-0.21,0.89-0.21
			c0.34,0,0.64,0.07,0.91,0.21c0.27,0.14,0.49,0.34,0.68,0.58c0.18,0.25,0.32,0.54,0.42,0.87c0.1,0.33,0.14,0.69,0.14,1.07
			c0,0.03,0,0.07,0,0.11s0,0.08-0.01,0.13h-3.65C200.86,29.56,200.92,29.81,201.02,30.02z M203.79,28.71
			c-0.02-0.23-0.06-0.46-0.13-0.67c-0.07-0.21-0.16-0.4-0.28-0.56c-0.12-0.16-0.27-0.29-0.44-0.38c-0.17-0.1-0.38-0.14-0.61-0.14
			c-0.2,0-0.39,0.04-0.56,0.13c-0.17,0.09-0.32,0.21-0.45,0.37c-0.13,0.16-0.24,0.34-0.32,0.55c-0.08,0.21-0.14,0.45-0.16,0.7
			H203.79z"/>
		<path class="st4" d="M206.39,31.58h-0.69v-5.16h0.69v1.35c0.08-0.21,0.19-0.41,0.31-0.59c0.12-0.18,0.27-0.33,0.43-0.46
			c0.16-0.13,0.34-0.23,0.53-0.29c0.19-0.07,0.4-0.1,0.62-0.09v0.83h-0.05c-0.25,0-0.49,0.05-0.71,0.15
			c-0.22,0.1-0.42,0.25-0.58,0.45c-0.17,0.2-0.3,0.45-0.39,0.74c-0.1,0.3-0.14,0.64-0.14,1.02V31.58z"/>
		<path class="st4" d="M212.73,26.41h0.74l-2.01,5.2h-0.61l-2-5.2h0.76l1.55,4.28L212.73,26.41z"/>
		<path class="st4" d="M214.56,25.28v-0.85h0.78v0.85H214.56z M214.61,31.58v-5.16h0.69v5.16H214.61z"/>
		<path class="st4" d="M220.06,31.41c-0.29,0.19-0.66,0.28-1.09,0.28c-0.34,0-0.65-0.07-0.94-0.21c-0.29-0.14-0.54-0.34-0.75-0.58
			c-0.21-0.24-0.38-0.53-0.49-0.85c-0.12-0.33-0.18-0.67-0.18-1.04s0.06-0.71,0.18-1.04c0.12-0.33,0.28-0.62,0.49-0.86
			c0.21-0.25,0.46-0.44,0.75-0.58c0.29-0.14,0.6-0.21,0.94-0.21c0.22,0,0.42,0.02,0.6,0.07c0.18,0.05,0.34,0.11,0.49,0.19
			c0.15,0.08,0.29,0.18,0.41,0.29c0.12,0.11,0.24,0.23,0.35,0.36l-0.45,0.54c-0.18-0.21-0.39-0.4-0.6-0.55
			c-0.22-0.15-0.48-0.23-0.8-0.23c-0.23,0-0.45,0.05-0.65,0.15c-0.2,0.1-0.38,0.25-0.53,0.43c-0.15,0.18-0.26,0.4-0.35,0.64
			c-0.08,0.24-0.12,0.5-0.12,0.78c0,0.28,0.04,0.54,0.13,0.79c0.09,0.25,0.21,0.46,0.36,0.64c0.15,0.18,0.33,0.33,0.53,0.43
			c0.21,0.1,0.43,0.15,0.67,0.15c0.3,0,0.56-0.07,0.79-0.22c0.23-0.15,0.44-0.33,0.62-0.55l0.44,0.46
			C220.62,30.98,220.36,31.22,220.06,31.41z"/>
		<path class="st4" d="M222.45,30.02c0.1,0.22,0.22,0.4,0.37,0.55c0.15,0.15,0.32,0.26,0.5,0.34c0.18,0.08,0.38,0.11,0.58,0.11
			c0.32,0,0.6-0.07,0.82-0.2c0.23-0.13,0.44-0.31,0.63-0.53l0.43,0.43c-0.23,0.29-0.5,0.53-0.79,0.7c-0.3,0.18-0.67,0.26-1.11,0.26
			c-0.32,0-0.61-0.07-0.89-0.19c-0.28-0.13-0.52-0.31-0.73-0.55c-0.21-0.24-0.38-0.52-0.5-0.85c-0.12-0.33-0.19-0.7-0.19-1.1
			c0-0.37,0.06-0.72,0.16-1.05c0.11-0.33,0.26-0.62,0.46-0.86c0.2-0.24,0.43-0.43,0.7-0.57c0.27-0.14,0.57-0.21,0.89-0.21
			c0.34,0,0.64,0.07,0.91,0.21c0.27,0.14,0.49,0.34,0.68,0.58c0.18,0.25,0.32,0.54,0.42,0.87c0.1,0.33,0.14,0.69,0.14,1.07
			c0,0.03,0,0.07,0,0.11s0,0.08-0.01,0.13h-3.65C222.29,29.56,222.35,29.81,222.45,30.02z M225.22,28.71
			c-0.02-0.23-0.06-0.46-0.13-0.67c-0.07-0.21-0.16-0.4-0.28-0.56c-0.12-0.16-0.27-0.29-0.44-0.38c-0.17-0.1-0.38-0.14-0.61-0.14
			c-0.2,0-0.39,0.04-0.56,0.13c-0.17,0.09-0.32,0.21-0.45,0.37c-0.13,0.16-0.24,0.34-0.32,0.55c-0.08,0.21-0.14,0.45-0.16,0.7
			H225.22z"/>
		<path class="st4" d="M230.16,30.78c-0.09,0.19-0.2,0.35-0.35,0.48c-0.15,0.13-0.32,0.23-0.52,0.3c-0.2,0.07-0.41,0.1-0.65,0.1
			c-0.33,0-0.67-0.07-1.01-0.2c-0.34-0.14-0.64-0.32-0.9-0.55l0.35-0.55c0.25,0.21,0.51,0.38,0.78,0.49
			c0.27,0.11,0.54,0.17,0.82,0.17c0.28,0,0.51-0.07,0.69-0.22s0.27-0.35,0.27-0.6v-0.02c0-0.13-0.03-0.24-0.09-0.33
			c-0.06-0.09-0.15-0.17-0.25-0.24c-0.11-0.07-0.23-0.13-0.37-0.18c-0.14-0.05-0.28-0.1-0.43-0.15c-0.18-0.06-0.36-0.12-0.54-0.19
			c-0.18-0.07-0.35-0.16-0.49-0.26s-0.26-0.24-0.36-0.4c-0.09-0.16-0.14-0.36-0.14-0.6V27.8c0-0.22,0.04-0.42,0.12-0.6
			c0.08-0.18,0.19-0.34,0.33-0.47c0.14-0.13,0.31-0.23,0.5-0.3c0.19-0.07,0.4-0.1,0.63-0.1c0.29,0,0.57,0.05,0.87,0.15
			c0.29,0.1,0.56,0.24,0.79,0.41l-0.31,0.58c-0.21-0.15-0.44-0.27-0.67-0.36c-0.23-0.09-0.47-0.13-0.69-0.13
			c-0.27,0-0.49,0.07-0.65,0.21c-0.16,0.14-0.24,0.32-0.24,0.53v0.02c0,0.12,0.03,0.22,0.1,0.31c0.07,0.09,0.15,0.17,0.26,0.23
			c0.11,0.07,0.24,0.13,0.38,0.18c0.14,0.05,0.29,0.11,0.45,0.16c0.18,0.06,0.36,0.13,0.53,0.2c0.18,0.07,0.33,0.17,0.48,0.28
			c0.14,0.11,0.26,0.25,0.34,0.41c0.09,0.16,0.13,0.36,0.13,0.59v0.02C230.29,30.37,230.25,30.59,230.16,30.78z"/>
	</g>
</g>
</svg>
