<?xml version="1.0" encoding="utf-8"?>
<!-- Generator: Adobe Illustrator 23.0.2, SVG Export Plug-In . SVG Version: 6.00 Build 0)  -->
<svg version="1.1" id="Capa_1" xmlns="http://www.w3.org/2000/svg" xmlns:xlink="http://www.w3.org/1999/xlink" x="0px" y="0px"
	 viewBox="0 0 570.01 80" style="enable-background:new 0 0 570.01 80;" xml:space="preserve">
<style type="text/css">
	.st0{fill-rule:evenodd;clip-rule:evenodd;fill:#712E84;}
	.st1{fill-rule:evenodd;clip-rule:evenodd;fill:#F0D035;stroke:#F0D035;stroke-width:0.25;stroke-miterlimit:10;}
	.st2{fill:#712E84;}
	.st3{fill:#848484;}
</style>
<g>
	<path class="st0" d="M57.08,9.24c0,0-9.95,0.54-8.64,11.58c1.16,9.68,13.76,7.95,16.78,2.78c2.4-4.11,2.57-9.8-1.14-12.39
		c-3.18-2.22-10.21-0.06-5.74,0.28c4.04,0.31,5.29,2.12,5.61,4.92c0.32,2.8-2.76,5.69-6.56,6.46c-2.11,0.43-7.18-0.18-6.31-6.78
		C51.83,10.38,57.08,9.24,57.08,9.24L57.08,9.24z"/>
	<path class="st0" d="M60.07,62.73c0,0,11.41,5.41,12.08,1.45c0.66-3.96-0.61-7.48-1.23-8.76c-0.62-1.29-11.34-16.8-26.05-27.37
		c-13.99-10.05-18-9.66-12.44-3.61c3.8,4.14,11.9,7.73,13.94,9.3c2.04,1.57,11.95,9.99,13.37,17.79
		C60.8,57.46,60.07,62.73,60.07,62.73L60.07,62.73z"/>
	<path class="st1" d="M83.56,12.57c0.16-0.1,21.28,27.07,18.91,39.96c-2.32,12.67-17.77,22.04-63.73,10.62
		c-9.82-2.77-22.61-12.99-6.92-33.41c2.03-2.07,1.12-3.64-1.6-1.51c-2.72,2.12-16.44,17.04-11.25,28.32
		c5.2,11.29,21.4,17.04,46.01,17.65c24.61,0.61,39.21-1.88,42.09-15.28C109.95,45.52,91.44,18.21,83.56,12.57L83.56,12.57z"/>
	<path class="st0" d="M89.15,11.04c-1.33,1.59-15.18,18.6-19.03,26.93c-5.49,7.75-8.54-0.05-5.12-5.61
		c3.42-5.57,16.71-19.8,22.52-23.85c2.6-1.81,3.17-2.31,1.84,2.27C89.3,10.87,89.22,10.96,89.15,11.04L89.15,11.04z"/>
</g>
<g>
	<path class="st2" d="M121.29,42.54v18.01h-7.45V17.82h7.45v17.76h20.51V17.82h7.45v42.73h-7.45V42.54H121.29z"/>
	<path class="st2" d="M192.65,47.58c-1.1,2.62-2.66,4.89-4.67,6.81c-2.01,1.91-4.42,3.42-7.2,4.52c-2.79,1.1-5.85,1.65-9.19,1.65
		h-15.93V17.82h15.93c3.34,0,6.4,0.54,9.19,1.62c2.79,1.08,5.19,2.57,7.2,4.49c2.01,1.91,3.57,4.17,4.67,6.78
		c1.1,2.6,1.65,5.41,1.65,8.42C194.3,42.14,193.75,44.95,192.65,47.58z M185.35,33.39c-0.71-1.78-1.71-3.32-3-4.63
		s-2.85-2.33-4.68-3.07c-1.84-0.74-3.88-1.1-6.12-1.1h-8.45v29.18h8.45c2.24,0,4.28-0.36,6.12-1.07c1.84-0.72,3.4-1.72,4.68-3
		s2.29-2.82,3-4.6c0.71-1.78,1.07-3.73,1.07-5.85C186.42,37.12,186.06,35.17,185.35,33.39z"/>
	<path class="st2" d="M230.43,24.6h-24.17v10.99h21.43v6.78h-21.43v11.41h24.48v6.78h-31.92V17.82h31.62V24.6z"/>
</g>
<g>
	<g>
		<path class="st3" d="M258.99,47.2c-0.45,0.98-1.06,1.81-1.82,2.47c-0.77,0.66-1.66,1.16-2.68,1.49c-1.02,0.33-2.1,0.5-3.25,0.5
			h-5.21v8.47h-2.42V36.12h8.03c1.2,0,2.3,0.18,3.29,0.53c0.99,0.35,1.84,0.86,2.54,1.51c0.7,0.65,1.25,1.45,1.62,2.4
			c0.38,0.95,0.57,2.02,0.57,3.21C259.66,45.08,259.44,46.22,258.99,47.2z M255.66,39.95c-1.06-0.88-2.45-1.32-4.19-1.32h-5.44
			v10.57h5.31c0.88,0,1.68-0.13,2.41-0.38c0.73-0.25,1.35-0.61,1.87-1.08c0.52-0.47,0.92-1.03,1.2-1.68
			c0.28-0.65,0.41-1.38,0.41-2.18C257.24,42.14,256.72,40.83,255.66,39.95z"/>
		<path class="st3" d="M266.04,60.14h-2.36V42.4h2.36v4.63c0.29-0.73,0.64-1.41,1.07-2.02c0.43-0.62,0.92-1.15,1.47-1.6
			c0.55-0.45,1.15-0.78,1.81-1.01c0.65-0.23,1.36-0.33,2.11-0.31v2.85h-0.18c-0.86,0-1.67,0.17-2.44,0.52
			c-0.77,0.34-1.44,0.86-2.01,1.54c-0.57,0.69-1.02,1.54-1.35,2.56c-0.33,1.02-0.49,2.19-0.49,3.52V60.14z"/>
		<path class="st3" d="M290.32,54.84c-0.42,1.13-1,2.12-1.73,2.97c-0.74,0.85-1.61,1.52-2.63,2.01c-1.02,0.49-2.12,0.74-3.31,0.74
			c-1.18,0-2.28-0.25-3.28-0.74c-1-0.49-1.87-1.15-2.6-1.99c-0.74-0.83-1.31-1.81-1.72-2.93s-0.61-2.31-0.61-3.57
			c0-1.26,0.2-2.45,0.61-3.59c0.41-1.13,0.98-2.12,1.72-2.97c0.74-0.85,1.61-1.51,2.62-2.01c1.01-0.49,2.12-0.74,3.32-0.74
			c1.18,0,2.28,0.25,3.29,0.74c1.01,0.49,1.88,1.16,2.62,1.99c0.74,0.84,1.31,1.81,1.72,2.93c0.41,1.12,0.61,2.31,0.61,3.57
			C290.94,52.51,290.73,53.7,290.32,54.84z M288.08,48.6c-0.3-0.84-0.71-1.58-1.24-2.21c-0.53-0.63-1.15-1.12-1.87-1.49
			c-0.72-0.36-1.49-0.55-2.33-0.55c-0.86,0-1.64,0.18-2.36,0.53c-0.72,0.35-1.32,0.84-1.82,1.47c-0.5,0.63-0.89,1.36-1.18,2.19
			c-0.29,0.83-0.43,1.73-0.43,2.69c0,0.96,0.15,1.86,0.44,2.7c0.3,0.84,0.7,1.57,1.22,2.19c0.52,0.62,1.14,1.11,1.85,1.47
			c0.72,0.37,1.49,0.55,2.33,0.55c0.86,0,1.64-0.18,2.36-0.53c0.71-0.35,1.33-0.84,1.84-1.45c0.51-0.62,0.91-1.34,1.2-2.17
			c0.29-0.83,0.43-1.73,0.43-2.69S288.37,49.44,288.08,48.6z"/>
		<path class="st3" d="M303.44,42.47v2.26h-4.99v15.41h-2.36V44.73h-2.17v-2.3h2.17v-1.54c0-1.94,0.41-3.42,1.24-4.43
			c0.83-1.01,2.01-1.51,3.54-1.51c0.55,0,1.03,0.04,1.42,0.1c0.4,0.07,0.79,0.18,1.18,0.34v2.3c-0.43-0.14-0.82-0.25-1.16-0.33
			c-0.35-0.08-0.72-0.12-1.13-0.12c-1.84,0-2.76,1.26-2.76,3.77v1.44H303.44z"/>
		<path class="st3" d="M308.19,54.8c0.33,0.74,0.74,1.37,1.26,1.89c0.51,0.51,1.08,0.9,1.72,1.17c0.63,0.26,1.3,0.39,1.99,0.39
			c1.1,0,2.05-0.23,2.83-0.69c0.78-0.46,1.5-1.06,2.16-1.82l1.47,1.48c-0.8,1.01-1.71,1.81-2.73,2.42c-1.02,0.61-2.29,0.91-3.8,0.91
			c-1.08,0-2.1-0.22-3.06-0.67c-0.96-0.45-1.8-1.07-2.52-1.89c-0.72-0.81-1.29-1.79-1.72-2.93c-0.42-1.14-0.64-2.4-0.64-3.77
			c0-1.28,0.19-2.49,0.57-3.62c0.38-1.13,0.9-2.12,1.58-2.95c0.67-0.83,1.47-1.49,2.41-1.97c0.93-0.48,1.94-0.72,3.05-0.72
			c1.16,0,2.21,0.25,3.12,0.74c0.92,0.49,1.7,1.16,2.33,2.01c0.63,0.85,1.11,1.84,1.44,2.99c0.33,1.14,0.49,2.37,0.49,3.67
			c0,0.12,0,0.24,0,0.38c0,0.14-0.01,0.29-0.03,0.45h-12.53C307.66,53.21,307.86,54.06,308.19,54.8z M317.72,50.29
			c-0.06-0.8-0.21-1.57-0.44-2.3c-0.23-0.73-0.56-1.37-0.97-1.92c-0.42-0.55-0.92-0.99-1.52-1.32c-0.6-0.33-1.3-0.5-2.09-0.5
			c-0.69,0-1.33,0.15-1.92,0.46c-0.59,0.31-1.11,0.73-1.55,1.27c-0.45,0.54-0.81,1.17-1.1,1.9c-0.28,0.73-0.47,1.53-0.55,2.4H317.72
			z"/>
		<path class="st3" d="M334.71,57.41c-0.3,0.65-0.69,1.21-1.19,1.66c-0.5,0.46-1.09,0.81-1.78,1.05c-0.69,0.24-1.42,0.36-2.22,0.36
			c-1.14,0-2.3-0.23-3.46-0.7c-1.17-0.47-2.2-1.1-3.1-1.9l1.2-1.89c0.86,0.73,1.75,1.29,2.68,1.68c0.93,0.39,1.86,0.58,2.8,0.58
			c0.96,0,1.75-0.25,2.36-0.75s0.92-1.19,0.92-2.06v-0.07c0-0.43-0.11-0.81-0.32-1.13c-0.21-0.32-0.5-0.6-0.87-0.84
			c-0.37-0.24-0.79-0.45-1.27-0.63c-0.48-0.18-0.98-0.35-1.49-0.51c-0.61-0.21-1.23-0.43-1.85-0.67c-0.62-0.24-1.19-0.54-1.69-0.91
			c-0.5-0.37-0.91-0.82-1.23-1.37c-0.32-0.55-0.47-1.24-0.47-2.06v-0.07c0-0.75,0.13-1.45,0.4-2.08c0.27-0.63,0.64-1.17,1.12-1.61
			c0.48-0.45,1.05-0.79,1.72-1.03c0.66-0.24,1.38-0.36,2.16-0.36c0.98,0,1.97,0.18,2.97,0.53c1,0.36,1.91,0.83,2.73,1.42l-1.07,1.99
			c-0.74-0.53-1.51-0.94-2.31-1.25c-0.81-0.31-1.6-0.46-2.37-0.46c-0.94,0-1.69,0.25-2.24,0.74c-0.55,0.49-0.83,1.1-0.83,1.84v0.07
			c0,0.41,0.11,0.77,0.34,1.08c0.23,0.31,0.53,0.58,0.9,0.81c0.38,0.23,0.81,0.43,1.3,0.62c0.49,0.18,1,0.37,1.53,0.55
			c0.61,0.21,1.22,0.43,1.82,0.69c0.6,0.25,1.15,0.57,1.64,0.96c0.49,0.39,0.88,0.86,1.18,1.41c0.3,0.55,0.45,1.22,0.45,2.02v0.07
			C335.15,56.01,335,56.76,334.71,57.41z"/>
		<path class="st3" d="M349.66,57.41c-0.3,0.65-0.69,1.21-1.19,1.66c-0.5,0.46-1.09,0.81-1.78,1.05c-0.69,0.24-1.42,0.36-2.22,0.36
			c-1.14,0-2.3-0.23-3.46-0.7c-1.17-0.47-2.2-1.1-3.1-1.9l1.2-1.89c0.86,0.73,1.75,1.29,2.68,1.68c0.93,0.39,1.86,0.58,2.8,0.58
			c0.96,0,1.75-0.25,2.36-0.75s0.92-1.19,0.92-2.06v-0.07c0-0.43-0.11-0.81-0.32-1.13c-0.21-0.32-0.5-0.6-0.87-0.84
			c-0.37-0.24-0.79-0.45-1.27-0.63c-0.48-0.18-0.98-0.35-1.49-0.51c-0.61-0.21-1.23-0.43-1.85-0.67c-0.62-0.24-1.19-0.54-1.69-0.91
			c-0.5-0.37-0.91-0.82-1.23-1.37c-0.32-0.55-0.47-1.24-0.47-2.06v-0.07c0-0.75,0.13-1.45,0.4-2.08c0.27-0.63,0.64-1.17,1.12-1.61
			s1.05-0.79,1.72-1.03c0.66-0.24,1.38-0.36,2.16-0.36c0.98,0,1.97,0.18,2.97,0.53c1,0.36,1.91,0.83,2.73,1.42l-1.07,1.99
			c-0.74-0.53-1.51-0.94-2.31-1.25c-0.81-0.31-1.6-0.46-2.37-0.46c-0.94,0-1.69,0.25-2.24,0.74c-0.55,0.49-0.83,1.1-0.83,1.84v0.07
			c0,0.41,0.11,0.77,0.34,1.08c0.23,0.31,0.53,0.58,0.9,0.81c0.38,0.23,0.81,0.43,1.3,0.62c0.49,0.18,1,0.37,1.53,0.55
			c0.61,0.21,1.22,0.43,1.82,0.69c0.6,0.25,1.15,0.57,1.64,0.96c0.49,0.39,0.88,0.86,1.18,1.41c0.3,0.55,0.45,1.22,0.45,2.02v0.07
			C350.1,56.01,349.95,56.76,349.66,57.41z"/>
		<path class="st3" d="M354.54,38.52v-2.92h2.7v2.92H354.54z M354.7,60.14V42.4h2.36v17.74H354.7z"/>
		<path class="st3" d="M377.44,54.84c-0.42,1.13-0.99,2.12-1.73,2.97c-0.74,0.85-1.61,1.52-2.64,2.01
			c-1.02,0.49-2.13,0.74-3.31,0.74c-1.18,0-2.28-0.25-3.28-0.74c-1-0.49-1.87-1.15-2.6-1.99c-0.74-0.83-1.31-1.81-1.71-2.93
			c-0.41-1.12-0.61-2.31-0.61-3.57c0-1.26,0.2-2.45,0.61-3.59c0.41-1.13,0.98-2.12,1.71-2.97c0.74-0.85,1.61-1.51,2.62-2.01
			c1.01-0.49,2.12-0.74,3.32-0.74c1.18,0,2.28,0.25,3.29,0.74c1.01,0.49,1.89,1.16,2.62,1.99c0.74,0.84,1.31,1.81,1.71,2.93
			c0.41,1.12,0.61,2.31,0.61,3.57C378.07,52.51,377.86,53.7,377.44,54.84z M375.21,48.6c-0.3-0.84-0.71-1.58-1.24-2.21
			c-0.53-0.63-1.15-1.12-1.87-1.49c-0.71-0.36-1.49-0.55-2.33-0.55c-0.86,0-1.64,0.18-2.36,0.53c-0.71,0.35-1.32,0.84-1.82,1.47
			c-0.5,0.63-0.89,1.36-1.18,2.19c-0.29,0.83-0.43,1.73-0.43,2.69c0,0.96,0.15,1.86,0.44,2.7c0.3,0.84,0.7,1.57,1.23,2.19
			c0.52,0.62,1.14,1.11,1.85,1.47c0.71,0.37,1.49,0.55,2.33,0.55c0.86,0,1.64-0.18,2.36-0.53c0.71-0.35,1.33-0.84,1.84-1.45
			c0.51-0.62,0.91-1.34,1.2-2.17c0.29-0.83,0.43-1.73,0.43-2.69S375.5,49.44,375.21,48.6z"/>
		<path class="st3" d="M384.69,60.14h-2.36V42.4h2.36v3.09c0.53-0.96,1.23-1.78,2.08-2.45c0.86-0.67,1.97-1.01,3.34-1.01
			c0.96,0,1.81,0.17,2.56,0.52c0.74,0.34,1.38,0.83,1.9,1.46c0.52,0.63,0.92,1.38,1.2,2.25c0.28,0.87,0.41,1.83,0.41,2.88v11.01
			h-2.36V49.78c0-1.65-0.38-2.95-1.13-3.91c-0.76-0.96-1.84-1.44-3.25-1.44c-0.67,0-1.3,0.13-1.89,0.39
			c-0.58,0.26-1.09,0.64-1.52,1.13c-0.43,0.49-0.76,1.08-1,1.77c-0.23,0.69-0.35,1.44-0.35,2.26V60.14z"/>
		<path class="st3" d="M404.38,44.85c-0.77,0.24-1.52,0.56-2.25,0.94l-0.7-2.16c0.88-0.46,1.77-0.82,2.67-1.08
			c0.9-0.26,1.93-0.39,3.09-0.39c2.17,0,3.83,0.6,4.99,1.8c1.17,1.2,1.75,2.98,1.75,5.34v10.84h-2.27v-2.68
			c-0.55,0.8-1.29,1.51-2.22,2.13c-0.93,0.62-2.1,0.93-3.51,0.93c-0.74,0-1.45-0.11-2.16-0.34s-1.34-0.58-1.9-1.05
			c-0.56-0.47-1.01-1.05-1.35-1.73c-0.34-0.69-0.51-1.5-0.51-2.44c0-0.94,0.16-1.77,0.49-2.49c0.33-0.72,0.79-1.32,1.39-1.8
			c0.6-0.48,1.32-0.85,2.14-1.1c0.83-0.25,1.74-0.38,2.74-0.38c1.02,0,1.91,0.07,2.67,0.21s1.49,0.32,2.21,0.55v-0.62
			c0-1.6-0.41-2.81-1.24-3.62c-0.83-0.81-1.99-1.22-3.48-1.22C405.99,44.49,405.14,44.61,404.38,44.85z M403.62,52.14
			c-0.79,0.66-1.19,1.57-1.19,2.71c0,0.57,0.11,1.08,0.32,1.51c0.21,0.44,0.5,0.81,0.87,1.12c0.37,0.31,0.79,0.54,1.27,0.7
			c0.48,0.16,0.98,0.24,1.51,0.24c0.73,0,1.42-0.12,2.06-0.36c0.64-0.24,1.2-0.57,1.68-1c0.48-0.42,0.85-0.93,1.13-1.51
			c0.27-0.58,0.41-1.23,0.41-1.94V51.9c-0.59-0.18-1.27-0.36-2.03-0.52c-0.76-0.16-1.63-0.24-2.61-0.24
			C405.55,51.15,404.41,51.48,403.62,52.14z"/>
		<path class="st3" d="M419.16,60.14V35.09h2.36v25.05H419.16z"/>
	</g>
	<g>
		<path class="st3" d="M438.7,43.64c0.16,0.46,0.46,0.88,0.89,1.25c0.43,0.38,1.02,0.72,1.78,1.03c0.76,0.31,1.73,0.6,2.91,0.88
			c2.39,0.6,4.15,1.42,5.29,2.47c1.13,1.05,1.7,2.51,1.7,4.36c0,1.03-0.18,1.97-0.54,2.82c-0.36,0.85-0.86,1.57-1.5,2.16
			c-0.64,0.6-1.41,1.05-2.3,1.38c-0.9,0.32-1.88,0.48-2.94,0.48c-1.71,0-3.28-0.31-4.7-0.93c-1.42-0.62-2.77-1.58-4.06-2.88
			l1.5-1.99c1.12,1.14,2.26,2,3.4,2.56c1.14,0.56,2.46,0.84,3.95,0.84c1.45,0,2.61-0.38,3.48-1.13s1.3-1.75,1.3-2.99
			c0-0.57-0.08-1.08-0.25-1.53c-0.16-0.45-0.45-0.85-0.86-1.22s-0.98-0.7-1.71-1c-0.73-0.3-1.65-0.58-2.78-0.86
			c-1.23-0.3-2.3-0.64-3.21-1.03c-0.91-0.39-1.66-0.86-2.26-1.41c-0.59-0.55-1.03-1.19-1.32-1.92c-0.29-0.73-0.43-1.6-0.43-2.61
			c0-0.96,0.17-1.84,0.52-2.65c0.35-0.8,0.84-1.49,1.47-2.08c0.63-0.58,1.38-1.04,2.24-1.37c0.86-0.33,1.8-0.5,2.82-0.5
			c1.57,0,2.95,0.24,4.12,0.73c1.17,0.48,2.31,1.21,3.42,2.19l-1.41,2.09c-1-0.91-2.01-1.58-3.02-1.99
			c-1.01-0.41-2.07-0.62-3.17-0.62c-0.7,0-1.32,0.1-1.89,0.31c-0.56,0.21-1.04,0.48-1.44,0.83c-0.4,0.34-0.7,0.76-0.92,1.24
			c-0.21,0.48-0.32,1-0.32,1.55C438.46,42.67,438.54,43.19,438.7,43.64z"/>
		<path class="st3" d="M457.85,54.8c0.33,0.74,0.75,1.37,1.26,1.89c0.51,0.51,1.08,0.9,1.72,1.17c0.63,0.26,1.3,0.39,1.99,0.39
			c1.1,0,2.05-0.23,2.83-0.69c0.79-0.46,1.51-1.06,2.16-1.82l1.47,1.48c-0.8,1.01-1.71,1.81-2.73,2.42
			c-1.02,0.61-2.29,0.91-3.8,0.91c-1.08,0-2.1-0.22-3.06-0.67c-0.96-0.45-1.8-1.07-2.52-1.89c-0.72-0.81-1.29-1.79-1.72-2.93
			c-0.42-1.14-0.64-2.4-0.64-3.77c0-1.28,0.19-2.49,0.57-3.62c0.38-1.13,0.91-2.12,1.58-2.95c0.67-0.83,1.48-1.49,2.41-1.97
			c0.93-0.48,1.95-0.72,3.05-0.72c1.16,0,2.21,0.25,3.12,0.74c0.92,0.49,1.7,1.16,2.33,2.01c0.63,0.85,1.11,1.84,1.44,2.99
			c0.33,1.14,0.49,2.37,0.49,3.67c0,0.12,0,0.24,0,0.38c0,0.14-0.01,0.29-0.03,0.45h-12.53C457.32,53.21,457.52,54.06,457.85,54.8z
			 M467.38,50.29c-0.06-0.8-0.21-1.57-0.44-2.3c-0.23-0.73-0.56-1.37-0.97-1.92c-0.42-0.55-0.92-0.99-1.52-1.32
			c-0.6-0.33-1.29-0.5-2.09-0.5c-0.69,0-1.33,0.15-1.92,0.46c-0.59,0.31-1.11,0.73-1.55,1.27c-0.45,0.54-0.81,1.17-1.1,1.9
			c-0.28,0.73-0.47,1.53-0.55,2.4H467.38z"/>
		<path class="st3" d="M476.29,60.14h-2.36V42.4h2.36v4.63c0.29-0.73,0.64-1.41,1.07-2.02c0.43-0.62,0.92-1.15,1.47-1.6
			c0.55-0.45,1.15-0.78,1.81-1.01c0.65-0.23,1.36-0.33,2.11-0.31v2.85h-0.18c-0.86,0-1.67,0.17-2.43,0.52
			c-0.77,0.34-1.44,0.86-2.01,1.54c-0.57,0.69-1.02,1.54-1.35,2.56c-0.33,1.02-0.49,2.19-0.49,3.52V60.14z"/>
		<path class="st3" d="M498.08,42.4h2.54l-6.89,17.88h-2.08l-6.86-17.88h2.6l5.33,14.72L498.08,42.4z"/>
		<path class="st3" d="M504.39,38.52v-2.92h2.7v2.92H504.39z M504.54,60.14V42.4h2.36v17.74H504.54z"/>
		<path class="st3" d="M523.27,59.58c-1.01,0.65-2.26,0.97-3.75,0.97c-1.17,0-2.24-0.25-3.23-0.74c-0.99-0.49-1.85-1.15-2.57-1.99
			c-0.73-0.83-1.29-1.81-1.7-2.93c-0.41-1.12-0.61-2.31-0.61-3.57c0-1.26,0.2-2.45,0.61-3.59c0.41-1.13,0.97-2.12,1.7-2.97
			c0.73-0.85,1.58-1.51,2.57-2.01c0.99-0.49,2.07-0.74,3.23-0.74c0.76,0,1.44,0.08,2.05,0.24c0.61,0.16,1.17,0.38,1.69,0.67
			c0.51,0.29,0.98,0.62,1.41,1.01c0.43,0.39,0.83,0.8,1.19,1.24l-1.56,1.85c-0.63-0.73-1.32-1.36-2.07-1.89
			c-0.75-0.53-1.66-0.79-2.74-0.79c-0.8,0-1.54,0.18-2.24,0.53c-0.7,0.35-1.3,0.84-1.81,1.47c-0.51,0.63-0.91,1.36-1.2,2.19
			c-0.29,0.83-0.43,1.73-0.43,2.69c0,0.96,0.15,1.86,0.44,2.7c0.3,0.84,0.7,1.58,1.23,2.21c0.52,0.63,1.13,1.12,1.84,1.47
			c0.7,0.35,1.48,0.53,2.31,0.53c1.02,0,1.92-0.25,2.71-0.75c0.79-0.5,1.49-1.13,2.13-1.89l1.5,1.58
			C525.19,58.1,524.28,58.93,523.27,59.58z"/>
		<path class="st3" d="M531.47,54.8c0.33,0.74,0.75,1.37,1.26,1.89c0.51,0.51,1.08,0.9,1.72,1.17c0.63,0.26,1.3,0.39,1.99,0.39
			c1.1,0,2.05-0.23,2.83-0.69c0.79-0.46,1.51-1.06,2.16-1.82l1.47,1.48c-0.8,1.01-1.71,1.81-2.73,2.42
			c-1.02,0.61-2.29,0.91-3.8,0.91c-1.08,0-2.1-0.22-3.06-0.67c-0.96-0.45-1.8-1.07-2.52-1.89c-0.72-0.81-1.29-1.79-1.72-2.93
			c-0.42-1.14-0.64-2.4-0.64-3.77c0-1.28,0.19-2.49,0.57-3.62c0.38-1.13,0.91-2.12,1.58-2.95c0.67-0.83,1.48-1.49,2.41-1.97
			c0.93-0.48,1.95-0.72,3.05-0.72c1.16,0,2.21,0.25,3.12,0.74c0.92,0.49,1.7,1.16,2.33,2.01c0.63,0.85,1.11,1.84,1.44,2.99
			c0.33,1.14,0.49,2.37,0.49,3.67c0,0.12,0,0.24,0,0.38c0,0.14-0.01,0.29-0.03,0.45h-12.53C530.94,53.21,531.14,54.06,531.47,54.8z
			 M541,50.29c-0.06-0.8-0.21-1.57-0.44-2.3c-0.23-0.73-0.56-1.37-0.97-1.92c-0.42-0.55-0.92-0.99-1.52-1.32
			c-0.6-0.33-1.29-0.5-2.09-0.5c-0.69,0-1.33,0.15-1.92,0.46c-0.59,0.31-1.11,0.73-1.55,1.27c-0.45,0.54-0.81,1.17-1.1,1.9
			c-0.28,0.73-0.47,1.53-0.55,2.4H541z"/>
		<path class="st3" d="M557.98,57.41c-0.3,0.65-0.69,1.21-1.19,1.66c-0.5,0.46-1.09,0.81-1.78,1.05c-0.69,0.24-1.42,0.36-2.22,0.36
			c-1.14,0-2.3-0.23-3.46-0.7c-1.17-0.47-2.2-1.1-3.1-1.9l1.2-1.89c0.86,0.73,1.75,1.29,2.68,1.68c0.93,0.39,1.86,0.58,2.8,0.58
			c0.96,0,1.75-0.25,2.36-0.75c0.61-0.5,0.92-1.19,0.92-2.06v-0.07c0-0.43-0.11-0.81-0.32-1.13c-0.21-0.32-0.5-0.6-0.87-0.84
			c-0.37-0.24-0.79-0.45-1.27-0.63c-0.48-0.18-0.98-0.35-1.49-0.51c-0.61-0.21-1.23-0.43-1.85-0.67c-0.62-0.24-1.19-0.54-1.69-0.91
			c-0.5-0.37-0.91-0.82-1.23-1.37c-0.32-0.55-0.47-1.24-0.47-2.06v-0.07c0-0.75,0.13-1.45,0.4-2.08c0.27-0.63,0.64-1.17,1.12-1.61
			s1.05-0.79,1.72-1.03c0.66-0.24,1.38-0.36,2.16-0.36c0.98,0,1.97,0.18,2.97,0.53c1,0.36,1.91,0.83,2.73,1.42l-1.07,1.99
			c-0.74-0.53-1.51-0.94-2.31-1.25c-0.81-0.31-1.6-0.46-2.37-0.46c-0.94,0-1.69,0.25-2.24,0.74c-0.55,0.49-0.83,1.1-0.83,1.84v0.07
			c0,0.41,0.11,0.77,0.34,1.08c0.23,0.31,0.53,0.58,0.9,0.81c0.38,0.23,0.81,0.43,1.3,0.62c0.49,0.18,1,0.37,1.53,0.55
			c0.61,0.21,1.22,0.43,1.82,0.69c0.6,0.25,1.15,0.57,1.64,0.96c0.49,0.39,0.88,0.86,1.18,1.41c0.3,0.55,0.45,1.22,0.45,2.02v0.07
			C558.43,56.01,558.28,56.76,557.98,57.41z"/>
	</g>
</g>
</svg>
