<?xml version="1.0" encoding="utf-8"?>
<!-- Generator: Adobe Illustrator 23.0.2, SVG Export Plug-In . SVG Version: 6.00 Build 0)  -->
<svg version="1.1" id="Capa_1" xmlns="http://www.w3.org/2000/svg" xmlns:xlink="http://www.w3.org/1999/xlink" x="0px" y="0px"
	 viewBox="0 0 392.09 80" style="enable-background:new 0 0 392.09 80;" xml:space="preserve">
<style type="text/css">
	.st0{fill-rule:evenodd;clip-rule:evenodd;fill:#712E84;}
	.st1{fill-rule:evenodd;clip-rule:evenodd;fill:#F0D035;stroke:#F0D035;stroke-width:0.25;stroke-miterlimit:10;}
	.st2{fill:#712E84;}
	.st3{fill:#F0D035;}
	.st4{fill:#848484;}
</style>
<g>
	<g>
		<path class="st0" d="M57.08,9.24c0,0-9.95,0.54-8.64,11.58c1.16,9.68,13.76,7.95,16.78,2.78c2.4-4.11,2.57-9.8-1.14-12.39
			c-3.18-2.22-10.21-0.06-5.74,0.28c4.04,0.31,5.29,2.12,5.61,4.92c0.32,2.8-2.76,5.69-6.56,6.46c-2.11,0.43-7.18-0.18-6.31-6.78
			C51.83,10.38,57.08,9.24,57.08,9.24L57.08,9.24z"/>
		<path class="st0" d="M60.07,62.73c0,0,11.41,5.41,12.08,1.45c0.66-3.96-0.61-7.48-1.23-8.76c-0.62-1.29-11.34-16.8-26.05-27.37
			c-13.99-10.05-18-9.66-12.44-3.61c3.8,4.14,11.9,7.73,13.94,9.3c2.04,1.57,11.95,9.99,13.37,17.79
			C60.8,57.46,60.07,62.73,60.07,62.73L60.07,62.73z"/>
		<path class="st1" d="M83.56,12.57c0.16-0.1,21.28,27.07,18.91,39.96c-2.32,12.67-17.77,22.04-63.73,10.62
			c-9.82-2.77-22.61-12.99-6.92-33.41c2.03-2.07,1.12-3.64-1.6-1.51c-2.72,2.12-16.44,17.04-11.25,28.32
			c5.2,11.29,21.4,17.04,46.01,17.65c24.61,0.61,39.21-1.88,42.09-15.28C109.95,45.52,91.44,18.21,83.56,12.57L83.56,12.57z"/>
		<path class="st0" d="M89.15,11.04c-1.33,1.59-15.18,18.6-19.03,26.93c-5.49,7.75-8.54-0.05-5.12-5.61
			c3.42-5.57,16.71-19.8,22.52-23.85c2.6-1.81,3.17-2.31,1.84,2.27C89.3,10.87,89.22,10.96,89.15,11.04L89.15,11.04z"/>
	</g>
	<g>
		<path class="st2" d="M119.81,46.12v14.43h-5.97V26.31h5.97v14.24h16.44V26.31h5.97v34.24h-5.97V46.12H119.81z"/>
		<path class="st2" d="M177,50.15c-0.88,2.1-2.13,3.92-3.74,5.45c-1.61,1.53-3.54,2.74-5.77,3.62c-2.23,0.88-4.69,1.32-7.36,1.32
			h-12.77V26.31h12.77c2.67,0,5.13,0.43,7.36,1.3c2.23,0.86,4.16,2.06,5.77,3.6c1.61,1.53,2.86,3.34,3.74,5.43
			c0.88,2.09,1.32,4.34,1.32,6.75C178.32,45.79,177.88,48.05,177,50.15z M171.15,38.79c-0.57-1.42-1.37-2.66-2.4-3.71
			c-1.03-1.05-2.28-1.87-3.75-2.46c-1.47-0.59-3.11-0.88-4.9-0.88h-6.77v23.38h6.77c1.8,0,3.43-0.29,4.9-0.86s2.72-1.37,3.75-2.41
			s1.83-2.26,2.4-3.69c0.57-1.42,0.86-2.99,0.86-4.69S171.72,40.21,171.15,38.79z"/>
		<path class="st2" d="M207.28,31.74h-19.37v8.81h17.17v5.43h-17.17v9.15h19.62v5.43h-25.58V26.31h25.34V31.74z"/>
	</g>
	<g>
		<path class="st3" d="M222.71,53.54c-0.24,0.52-0.55,0.95-0.96,1.3c-0.4,0.35-0.87,0.61-1.41,0.78c-0.54,0.17-1.11,0.26-1.71,0.26
			h-2.74v4.45h-1.27V47.72h4.22c0.63,0,1.21,0.09,1.73,0.28c0.52,0.19,0.97,0.45,1.34,0.79c0.37,0.34,0.65,0.76,0.85,1.26
			c0.2,0.5,0.3,1.06,0.3,1.69C223.07,52.42,222.95,53.02,222.71,53.54z M220.97,49.73c-0.55-0.46-1.29-0.69-2.2-0.69h-2.86v5.55
			h2.79c0.46,0,0.88-0.07,1.27-0.2c0.38-0.13,0.71-0.32,0.98-0.57c0.27-0.25,0.48-0.54,0.63-0.88c0.15-0.34,0.22-0.72,0.22-1.15
			C221.8,50.88,221.52,50.19,220.97,49.73z"/>
		<path class="st3" d="M226.42,60.33h-1.24v-9.32h1.24v2.43c0.15-0.38,0.34-0.74,0.56-1.06s0.48-0.6,0.77-0.84
			c0.29-0.23,0.61-0.41,0.95-0.53c0.34-0.12,0.71-0.17,1.11-0.16v1.5h-0.1c-0.45,0-0.88,0.09-1.28,0.27
			c-0.4,0.18-0.75,0.45-1.05,0.81c-0.3,0.36-0.54,0.81-0.71,1.34c-0.17,0.53-0.26,1.15-0.26,1.85V60.33z"/>
		<path class="st3" d="M239.17,57.55c-0.22,0.59-0.52,1.11-0.91,1.56c-0.39,0.44-0.85,0.8-1.38,1.05c-0.54,0.26-1.12,0.39-1.74,0.39
			c-0.62,0-1.2-0.13-1.72-0.39c-0.53-0.26-0.98-0.61-1.37-1.05c-0.39-0.44-0.69-0.95-0.9-1.54c-0.21-0.59-0.32-1.21-0.32-1.87
			s0.11-1.29,0.32-1.88c0.21-0.59,0.52-1.11,0.9-1.56c0.39-0.44,0.84-0.8,1.38-1.05c0.53-0.26,1.11-0.39,1.75-0.39
			c0.62,0,1.2,0.13,1.73,0.39c0.53,0.26,0.99,0.61,1.38,1.05c0.39,0.44,0.69,0.95,0.9,1.54c0.21,0.59,0.32,1.21,0.32,1.87
			C239.5,56.33,239.39,56.95,239.17,57.55z M238,54.27c-0.16-0.44-0.37-0.83-0.65-1.16c-0.28-0.33-0.61-0.59-0.98-0.78
			c-0.38-0.19-0.78-0.29-1.22-0.29c-0.45,0-0.86,0.09-1.24,0.28c-0.38,0.19-0.69,0.44-0.96,0.77c-0.26,0.33-0.47,0.71-0.62,1.15
			c-0.15,0.44-0.22,0.91-0.22,1.41c0,0.5,0.08,0.98,0.23,1.42c0.16,0.44,0.37,0.83,0.64,1.15c0.27,0.32,0.6,0.58,0.97,0.77
			c0.38,0.19,0.78,0.29,1.22,0.29c0.45,0,0.86-0.09,1.24-0.28c0.38-0.19,0.7-0.44,0.97-0.76c0.27-0.32,0.48-0.7,0.63-1.14
			c0.15-0.44,0.22-0.91,0.22-1.41S238.15,54.72,238,54.27z"/>
		<path class="st3" d="M246.07,51.05v1.19h-2.62v8.09h-1.24v-8.09h-1.14v-1.21h1.14v-0.81c0-1.02,0.22-1.8,0.65-2.33
			c0.43-0.53,1.05-0.79,1.86-0.79c0.29,0,0.54,0.02,0.75,0.05c0.21,0.04,0.42,0.1,0.62,0.18v1.21c-0.23-0.07-0.43-0.13-0.61-0.17
			c-0.18-0.04-0.38-0.06-0.6-0.06c-0.97,0-1.45,0.66-1.45,1.98v0.76H246.07z"/>
		<path class="st3" d="M248.56,57.53c0.17,0.39,0.39,0.72,0.66,0.99c0.27,0.27,0.57,0.47,0.9,0.61c0.33,0.14,0.68,0.21,1.05,0.21
			c0.58,0,1.07-0.12,1.49-0.36c0.41-0.24,0.79-0.56,1.13-0.96l0.77,0.78c-0.42,0.53-0.9,0.95-1.43,1.27c-0.54,0.32-1.2,0.48-2,0.48
			c-0.57,0-1.11-0.12-1.61-0.35c-0.5-0.23-0.95-0.56-1.32-0.99c-0.38-0.43-0.68-0.94-0.9-1.54c-0.22-0.6-0.33-1.26-0.33-1.98
			c0-0.67,0.1-1.31,0.3-1.9c0.2-0.59,0.47-1.11,0.83-1.55c0.35-0.44,0.77-0.78,1.26-1.04c0.49-0.25,1.02-0.38,1.6-0.38
			c0.61,0,1.16,0.13,1.64,0.39c0.48,0.26,0.89,0.61,1.22,1.05c0.33,0.44,0.59,0.97,0.76,1.57c0.17,0.6,0.26,1.24,0.26,1.93
			c0,0.06,0,0.13,0,0.2c0,0.07,0,0.15-0.02,0.23h-6.58C248.28,56.69,248.39,57.14,248.56,57.53z M253.57,55.16
			c-0.03-0.42-0.11-0.82-0.23-1.21c-0.12-0.38-0.29-0.72-0.51-1.01c-0.22-0.29-0.49-0.52-0.8-0.69s-0.68-0.26-1.1-0.26
			c-0.36,0-0.7,0.08-1.01,0.24c-0.31,0.16-0.58,0.38-0.82,0.67c-0.23,0.28-0.43,0.62-0.58,1c-0.15,0.39-0.25,0.81-0.29,1.26H253.57z
			"/>
		<path class="st3" d="M262.49,58.9c-0.16,0.34-0.36,0.63-0.63,0.87c-0.26,0.24-0.57,0.42-0.93,0.55c-0.36,0.13-0.75,0.19-1.17,0.19
			c-0.6,0-1.21-0.12-1.82-0.37c-0.61-0.25-1.15-0.58-1.63-1l0.63-0.99c0.45,0.38,0.92,0.68,1.41,0.88c0.49,0.2,0.98,0.31,1.47,0.31
			c0.5,0,0.92-0.13,1.24-0.4s0.48-0.63,0.48-1.08v-0.04c0-0.23-0.06-0.43-0.17-0.59c-0.11-0.17-0.26-0.32-0.46-0.44
			c-0.19-0.13-0.42-0.24-0.67-0.33c-0.25-0.1-0.51-0.19-0.78-0.27c-0.32-0.11-0.65-0.23-0.97-0.35c-0.33-0.13-0.62-0.29-0.89-0.48
			c-0.26-0.19-0.48-0.43-0.64-0.72c-0.17-0.29-0.25-0.65-0.25-1.08v-0.04c0-0.4,0.07-0.76,0.21-1.09c0.14-0.33,0.34-0.61,0.59-0.85
			s0.55-0.41,0.9-0.54c0.35-0.13,0.73-0.19,1.13-0.19c0.51,0,1.04,0.09,1.56,0.28c0.53,0.19,1,0.44,1.43,0.75l-0.56,1.05
			c-0.39-0.28-0.79-0.5-1.22-0.66c-0.42-0.16-0.84-0.24-1.25-0.24c-0.49,0-0.89,0.13-1.18,0.39c-0.29,0.26-0.43,0.58-0.43,0.96v0.04
			c0,0.22,0.06,0.41,0.18,0.57c0.12,0.16,0.28,0.3,0.47,0.42c0.2,0.12,0.43,0.23,0.68,0.32c0.26,0.1,0.53,0.19,0.8,0.29
			c0.32,0.11,0.64,0.23,0.96,0.36s0.6,0.3,0.86,0.5c0.26,0.2,0.46,0.45,0.62,0.74c0.16,0.29,0.23,0.64,0.23,1.06v0.04
			C262.73,58.16,262.65,58.56,262.49,58.9z"/>
		<path class="st3" d="M270.35,58.9c-0.16,0.34-0.36,0.63-0.63,0.87c-0.26,0.24-0.57,0.42-0.93,0.55c-0.36,0.13-0.75,0.19-1.17,0.19
			c-0.6,0-1.21-0.12-1.82-0.37c-0.61-0.25-1.15-0.58-1.63-1l0.63-0.99c0.45,0.38,0.92,0.68,1.41,0.88c0.49,0.2,0.98,0.31,1.47,0.31
			c0.5,0,0.92-0.13,1.24-0.4s0.48-0.63,0.48-1.08v-0.04c0-0.23-0.06-0.43-0.17-0.59c-0.11-0.17-0.26-0.32-0.46-0.44
			c-0.19-0.13-0.42-0.24-0.67-0.33c-0.25-0.1-0.51-0.19-0.78-0.27c-0.32-0.11-0.65-0.23-0.97-0.35c-0.33-0.13-0.62-0.29-0.89-0.48
			c-0.26-0.19-0.48-0.43-0.64-0.72c-0.17-0.29-0.25-0.65-0.25-1.08v-0.04c0-0.4,0.07-0.76,0.21-1.09c0.14-0.33,0.34-0.61,0.59-0.85
			c0.25-0.23,0.55-0.41,0.9-0.54c0.35-0.13,0.73-0.19,1.13-0.19c0.51,0,1.04,0.09,1.56,0.28c0.53,0.19,1,0.44,1.43,0.75l-0.56,1.05
			c-0.39-0.28-0.79-0.5-1.22-0.66c-0.42-0.16-0.84-0.24-1.25-0.24c-0.49,0-0.89,0.13-1.18,0.39c-0.29,0.26-0.43,0.58-0.43,0.96v0.04
			c0,0.22,0.06,0.41,0.18,0.57c0.12,0.16,0.28,0.3,0.47,0.42c0.2,0.12,0.43,0.23,0.68,0.32c0.26,0.1,0.53,0.19,0.8,0.29
			c0.32,0.11,0.64,0.23,0.96,0.36s0.6,0.3,0.86,0.5c0.26,0.2,0.46,0.45,0.62,0.74c0.16,0.29,0.23,0.64,0.23,1.06v0.04
			C270.58,58.16,270.5,58.56,270.35,58.9z"/>
		<path class="st3" d="M272.92,48.98v-1.53h1.42v1.53H272.92z M273,60.33v-9.32h1.24v9.32H273z"/>
		<path class="st3" d="M284.95,57.55c-0.22,0.59-0.52,1.11-0.91,1.56c-0.39,0.44-0.85,0.8-1.38,1.05c-0.54,0.26-1.12,0.39-1.74,0.39
			c-0.62,0-1.2-0.13-1.72-0.39c-0.53-0.26-0.98-0.61-1.37-1.05c-0.39-0.44-0.69-0.95-0.9-1.54c-0.21-0.59-0.32-1.21-0.32-1.87
			s0.11-1.29,0.32-1.88c0.21-0.59,0.51-1.11,0.9-1.56c0.39-0.44,0.85-0.8,1.38-1.05c0.53-0.26,1.11-0.39,1.75-0.39
			c0.62,0,1.2,0.13,1.73,0.39c0.53,0.26,0.99,0.61,1.38,1.05c0.39,0.44,0.69,0.95,0.9,1.54c0.21,0.59,0.32,1.21,0.32,1.87
			C285.28,56.33,285.17,56.95,284.95,57.55z M283.77,54.27c-0.16-0.44-0.37-0.83-0.65-1.16c-0.28-0.33-0.61-0.59-0.98-0.78
			c-0.38-0.19-0.78-0.29-1.22-0.29c-0.45,0-0.86,0.09-1.24,0.28c-0.38,0.19-0.69,0.44-0.96,0.77c-0.26,0.33-0.47,0.71-0.62,1.15
			c-0.15,0.44-0.22,0.91-0.22,1.41c0,0.5,0.08,0.98,0.23,1.42c0.16,0.44,0.37,0.83,0.64,1.15c0.27,0.32,0.6,0.58,0.97,0.77
			c0.38,0.19,0.78,0.29,1.22,0.29c0.45,0,0.86-0.09,1.24-0.28c0.38-0.19,0.7-0.44,0.97-0.76c0.27-0.32,0.48-0.7,0.63-1.14
			c0.15-0.44,0.22-0.91,0.22-1.41S283.93,54.72,283.77,54.27z"/>
		<path class="st3" d="M288.75,60.33h-1.24v-9.32h1.24v1.62c0.28-0.5,0.64-0.93,1.09-1.29c0.45-0.35,1.04-0.53,1.75-0.53
			c0.5,0,0.95,0.09,1.34,0.27c0.39,0.18,0.72,0.44,1,0.77c0.27,0.33,0.48,0.72,0.63,1.18c0.15,0.46,0.22,0.96,0.22,1.51v5.79h-1.24
			v-5.44c0-0.87-0.2-1.55-0.6-2.06c-0.4-0.5-0.97-0.76-1.71-0.76c-0.35,0-0.68,0.07-0.99,0.21c-0.31,0.14-0.57,0.34-0.8,0.59
			c-0.23,0.26-0.4,0.57-0.52,0.93c-0.12,0.36-0.19,0.76-0.19,1.19V60.33z"/>
		<path class="st3" d="M299.1,52.3c-0.4,0.13-0.8,0.29-1.18,0.5l-0.37-1.14c0.46-0.24,0.93-0.43,1.4-0.57
			c0.47-0.14,1.01-0.21,1.63-0.21c1.14,0,2.01,0.32,2.62,0.95c0.61,0.63,0.92,1.57,0.92,2.8v5.7h-1.19v-1.41
			c-0.29,0.42-0.68,0.79-1.17,1.12c-0.49,0.32-1.1,0.49-1.84,0.49c-0.39,0-0.76-0.06-1.13-0.18c-0.37-0.12-0.7-0.3-1-0.55
			c-0.29-0.25-0.53-0.55-0.71-0.91c-0.18-0.36-0.27-0.79-0.27-1.28c0-0.49,0.09-0.93,0.26-1.31c0.17-0.38,0.42-0.69,0.73-0.95
			c0.32-0.25,0.69-0.44,1.13-0.58c0.43-0.13,0.91-0.2,1.44-0.2c0.54,0,1,0.04,1.4,0.11c0.4,0.07,0.78,0.17,1.16,0.29v-0.32
			c0-0.84-0.22-1.48-0.65-1.9c-0.43-0.43-1.04-0.64-1.83-0.64C299.95,52.11,299.5,52.18,299.1,52.3z M298.7,56.13
			c-0.42,0.35-0.63,0.82-0.63,1.42c0,0.3,0.06,0.56,0.17,0.79c0.11,0.23,0.26,0.42,0.46,0.59c0.19,0.16,0.41,0.29,0.67,0.37
			c0.25,0.08,0.52,0.13,0.79,0.13c0.39,0,0.75-0.06,1.08-0.19c0.34-0.13,0.63-0.3,0.88-0.52c0.25-0.22,0.45-0.49,0.59-0.79
			c0.14-0.31,0.22-0.65,0.22-1.02v-0.9c-0.31-0.1-0.67-0.19-1.07-0.27c-0.4-0.08-0.86-0.13-1.37-0.13
			C299.71,55.61,299.11,55.79,298.7,56.13z"/>
		<path class="st3" d="M306.86,60.33V47.17h1.24v13.16H306.86z"/>
		<path class="st4" d="M317.13,51.67c0.09,0.24,0.24,0.46,0.47,0.66c0.22,0.2,0.54,0.38,0.93,0.54c0.4,0.16,0.91,0.32,1.53,0.46
			c1.26,0.31,2.18,0.75,2.78,1.3c0.6,0.55,0.89,1.32,0.89,2.29c0,0.54-0.1,1.04-0.29,1.48c-0.19,0.45-0.45,0.82-0.79,1.14
			c-0.33,0.31-0.74,0.55-1.21,0.72c-0.47,0.17-0.99,0.25-1.55,0.25c-0.9,0-1.72-0.16-2.47-0.49c-0.75-0.33-1.46-0.83-2.13-1.51
			l0.79-1.05c0.59,0.6,1.19,1.05,1.79,1.34c0.6,0.29,1.29,0.44,2.08,0.44c0.76,0,1.37-0.2,1.83-0.6c0.46-0.4,0.68-0.92,0.68-1.57
			c0-0.3-0.04-0.57-0.13-0.8c-0.09-0.23-0.24-0.45-0.45-0.64c-0.21-0.19-0.51-0.37-0.9-0.52c-0.38-0.16-0.87-0.31-1.46-0.45
			c-0.64-0.16-1.21-0.34-1.69-0.54s-0.87-0.45-1.19-0.74c-0.31-0.29-0.54-0.63-0.69-1.01c-0.15-0.39-0.23-0.84-0.23-1.37
			c0-0.51,0.09-0.97,0.27-1.39c0.18-0.42,0.44-0.79,0.77-1.09s0.72-0.55,1.18-0.72c0.45-0.17,0.94-0.26,1.48-0.26
			c0.83,0,1.55,0.13,2.16,0.38c0.62,0.25,1.22,0.64,1.8,1.15l-0.74,1.1c-0.53-0.48-1.06-0.83-1.59-1.05
			c-0.53-0.22-1.09-0.32-1.67-0.32c-0.37,0-0.69,0.05-0.99,0.16c-0.29,0.11-0.55,0.25-0.76,0.43c-0.21,0.18-0.37,0.4-0.48,0.65
			c-0.11,0.25-0.17,0.52-0.17,0.81C317,51.16,317.04,51.43,317.13,51.67z"/>
		<path class="st4" d="M327.19,57.53c0.17,0.39,0.39,0.72,0.66,0.99c0.27,0.27,0.57,0.47,0.9,0.61c0.33,0.14,0.68,0.21,1.05,0.21
			c0.58,0,1.08-0.12,1.49-0.36c0.41-0.24,0.79-0.56,1.13-0.96l0.77,0.78c-0.42,0.53-0.9,0.95-1.43,1.27c-0.54,0.32-1.2,0.48-2,0.48
			c-0.57,0-1.11-0.12-1.61-0.35c-0.5-0.23-0.95-0.56-1.32-0.99c-0.38-0.43-0.68-0.94-0.9-1.54c-0.22-0.6-0.33-1.26-0.33-1.98
			c0-0.67,0.1-1.31,0.3-1.9c0.2-0.59,0.48-1.11,0.83-1.55c0.35-0.44,0.78-0.78,1.26-1.04c0.49-0.25,1.02-0.38,1.6-0.38
			c0.61,0,1.16,0.13,1.64,0.39c0.48,0.26,0.89,0.61,1.22,1.05c0.33,0.44,0.59,0.97,0.76,1.57c0.17,0.6,0.26,1.24,0.26,1.93
			c0,0.06,0,0.13,0,0.2c0,0.07,0,0.15-0.02,0.23h-6.58C326.91,56.69,327.02,57.14,327.19,57.53z M332.19,55.16
			c-0.03-0.42-0.11-0.82-0.23-1.21c-0.12-0.38-0.29-0.72-0.51-1.01c-0.22-0.29-0.48-0.52-0.8-0.69c-0.31-0.17-0.68-0.26-1.1-0.26
			c-0.36,0-0.7,0.08-1.01,0.24c-0.31,0.16-0.58,0.38-0.82,0.67c-0.23,0.28-0.43,0.62-0.58,1c-0.15,0.39-0.24,0.81-0.29,1.26H332.19z
			"/>
		<path class="st4" d="M336.88,60.33h-1.24v-9.32h1.24v2.43c0.15-0.38,0.34-0.74,0.56-1.06c0.22-0.32,0.48-0.6,0.77-0.84
			c0.29-0.23,0.61-0.41,0.95-0.53c0.34-0.12,0.71-0.17,1.11-0.16v1.5h-0.1c-0.45,0-0.88,0.09-1.28,0.27
			c-0.4,0.18-0.75,0.45-1.06,0.81c-0.3,0.36-0.54,0.81-0.71,1.34c-0.17,0.53-0.26,1.15-0.26,1.85V60.33z"/>
		<path class="st4" d="M348.32,51.01h1.34l-3.62,9.39h-1.09l-3.6-9.39h1.37l2.8,7.73L348.32,51.01z"/>
		<path class="st4" d="M351.64,48.98v-1.53h1.42v1.53H351.64z M351.72,60.33v-9.32h1.24v9.32H351.72z"/>
		<path class="st4" d="M361.56,60.04c-0.53,0.34-1.19,0.51-1.97,0.51c-0.61,0-1.18-0.13-1.7-0.39c-0.52-0.26-0.97-0.61-1.35-1.05
			c-0.38-0.44-0.68-0.95-0.89-1.54c-0.21-0.59-0.32-1.21-0.32-1.87s0.11-1.29,0.32-1.88c0.21-0.59,0.51-1.11,0.89-1.56
			c0.38-0.44,0.83-0.8,1.35-1.05c0.52-0.26,1.09-0.39,1.7-0.39c0.4,0,0.76,0.04,1.08,0.13c0.32,0.08,0.62,0.2,0.89,0.35
			c0.27,0.15,0.51,0.33,0.74,0.53c0.22,0.2,0.43,0.42,0.63,0.65l-0.82,0.97c-0.33-0.38-0.7-0.72-1.09-0.99
			c-0.39-0.28-0.87-0.41-1.44-0.41c-0.42,0-0.81,0.09-1.18,0.28c-0.37,0.19-0.68,0.44-0.95,0.77c-0.27,0.33-0.48,0.71-0.63,1.15
			c-0.15,0.44-0.22,0.91-0.22,1.41c0,0.5,0.08,0.98,0.23,1.42c0.16,0.44,0.37,0.83,0.64,1.16c0.27,0.33,0.6,0.59,0.97,0.77
			c0.37,0.19,0.78,0.28,1.22,0.28c0.54,0,1.01-0.13,1.43-0.4c0.41-0.26,0.79-0.59,1.12-0.99l0.79,0.83
			C362.57,59.26,362.09,59.7,361.56,60.04z"/>
		<path class="st4" d="M365.86,57.53c0.17,0.39,0.39,0.72,0.66,0.99c0.27,0.27,0.57,0.47,0.9,0.61c0.33,0.14,0.68,0.21,1.05,0.21
			c0.58,0,1.08-0.12,1.49-0.36c0.41-0.24,0.79-0.56,1.13-0.96l0.77,0.78c-0.42,0.53-0.9,0.95-1.43,1.27c-0.54,0.32-1.2,0.48-2,0.48
			c-0.57,0-1.11-0.12-1.61-0.35c-0.5-0.23-0.95-0.56-1.32-0.99c-0.38-0.43-0.68-0.94-0.9-1.54c-0.22-0.6-0.33-1.26-0.33-1.98
			c0-0.67,0.1-1.31,0.3-1.9c0.2-0.59,0.48-1.11,0.83-1.55c0.35-0.44,0.78-0.78,1.26-1.04c0.49-0.25,1.02-0.38,1.6-0.38
			c0.61,0,1.16,0.13,1.64,0.39c0.48,0.26,0.89,0.61,1.22,1.05c0.33,0.44,0.59,0.97,0.76,1.57c0.17,0.6,0.26,1.24,0.26,1.93
			c0,0.06,0,0.13,0,0.2c0,0.07,0,0.15-0.02,0.23h-6.58C365.59,56.69,365.69,57.14,365.86,57.53z M370.87,55.16
			c-0.03-0.42-0.11-0.82-0.23-1.21c-0.12-0.38-0.29-0.72-0.51-1.01c-0.22-0.29-0.48-0.52-0.8-0.69c-0.31-0.17-0.68-0.26-1.1-0.26
			c-0.36,0-0.7,0.08-1.01,0.24c-0.31,0.16-0.58,0.38-0.82,0.67c-0.23,0.28-0.43,0.62-0.58,1c-0.15,0.39-0.24,0.81-0.29,1.26H370.87z
			"/>
		<path class="st4" d="M379.79,58.9c-0.16,0.34-0.36,0.63-0.63,0.87c-0.26,0.24-0.57,0.42-0.93,0.55c-0.36,0.13-0.75,0.19-1.17,0.19
			c-0.6,0-1.21-0.12-1.82-0.37c-0.61-0.25-1.15-0.58-1.63-1l0.63-0.99c0.45,0.38,0.92,0.68,1.41,0.88c0.49,0.2,0.98,0.31,1.47,0.31
			c0.5,0,0.92-0.13,1.24-0.4c0.32-0.26,0.48-0.63,0.48-1.08v-0.04c0-0.23-0.06-0.43-0.17-0.59c-0.11-0.17-0.26-0.32-0.46-0.44
			c-0.19-0.13-0.42-0.24-0.67-0.33c-0.25-0.1-0.51-0.19-0.78-0.27c-0.32-0.11-0.65-0.23-0.97-0.35c-0.33-0.13-0.62-0.29-0.89-0.48
			c-0.26-0.19-0.48-0.43-0.64-0.72c-0.17-0.29-0.25-0.65-0.25-1.08v-0.04c0-0.4,0.07-0.76,0.21-1.09c0.14-0.33,0.34-0.61,0.59-0.85
			c0.25-0.23,0.55-0.41,0.9-0.54c0.35-0.13,0.73-0.19,1.13-0.19c0.51,0,1.04,0.09,1.56,0.28c0.53,0.19,1,0.44,1.43,0.75l-0.56,1.05
			c-0.39-0.28-0.79-0.5-1.22-0.66s-0.84-0.24-1.25-0.24c-0.49,0-0.89,0.13-1.18,0.39c-0.29,0.26-0.43,0.58-0.43,0.96v0.04
			c0,0.22,0.06,0.41,0.18,0.57c0.12,0.16,0.28,0.3,0.47,0.42c0.2,0.12,0.43,0.23,0.68,0.32c0.26,0.1,0.53,0.19,0.8,0.29
			c0.32,0.11,0.64,0.23,0.96,0.36c0.32,0.13,0.6,0.3,0.86,0.5c0.26,0.2,0.46,0.45,0.62,0.74c0.16,0.29,0.23,0.64,0.23,1.06v0.04
			C380.03,58.16,379.95,58.56,379.79,58.9z"/>
	</g>
</g>
</svg>
